<svg width="1696" height="1696" viewBox="0 0 1696 1696" fill="none" xmlns="http://www.w3.org/2000/svg">
<rect width="1696" height="1696" fill="white"/>
<circle cx="929" cy="822" r="589" fill="#312152"/>
<rect x="330" y="1183" width="371" height="59" rx="29.5" fill="#E0DBEB"/>
<rect x="284" y="1084" width="444" height="59" rx="29.5" fill="#E0DBEB"/>
<rect x="244" y="985" width="528" height="59" rx="29.5" fill="#E0DBEB"/>
<rect x="177" y="886" width="794" height="59" rx="29.5" fill="#E0DBEB"/>
<rect x="244" y="787" width="589" height="59" rx="29.5" fill="#E0DBEB"/>
<rect x="284" y="688" width="590" height="59" rx="29.5" fill="#E0DBEB"/>
<rect x="133" y="1183" width="133" height="59" rx="29.5" fill="url(#paint0_linear_7_90)"/>
<rect x="166" y="590" width="133" height="59" rx="29.5" fill="url(#paint1_linear_7_90)"/>
<path d="M0 915.5C0 899.208 13.2076 886 29.5 886H103.5C119.792 886 133 899.208 133 915.5C133 931.792 119.792 945 103.5 945H29.5C13.2076 945 0 931.792 0 915.5Z" fill="url(#paint2_linear_7_90)"/>
<rect x="330" y="589" width="641" height="59" rx="29.5" fill="#E0DBEB"/>
<path d="M718.139 649.18C718.139 649.18 741.224 572.074 804.297 529.109C867.37 486.144 930.853 489.862 951.879 489.862H1347.21C1339.07 545.497 1325.85 585.958 1307.54 611.247C1289.22 636.536 1263.45 649.18 1230.22 649.18H908.593L851.939 809.776H1186.64C1178.51 866.254 1165.28 907.137 1146.97 932.426C1128.66 956.872 1102.88 969.094 1069.65 969.094H811.241L676 1355.5C676 1355.5 562.034 1301 512.5 1242.5L718.139 649.18Z" fill="white"/>
<defs>
<linearGradient id="paint0_linear_7_90" x1="133" y1="1242" x2="266" y2="1242" gradientUnits="userSpaceOnUse">
<stop stop-color="#E0DBEB" stop-opacity="0"/>
<stop offset="1" stop-color="#E0DBEB"/>
</linearGradient>
<linearGradient id="paint1_linear_7_90" x1="166" y1="649" x2="299" y2="649" gradientUnits="userSpaceOnUse">
<stop stop-color="#E0DBEB" stop-opacity="0.1"/>
<stop offset="1" stop-color="#E0DBEB"/>
</linearGradient>
<linearGradient id="paint2_linear_7_90" x1="0" y1="945" x2="133" y2="945" gradientUnits="userSpaceOnUse">
<stop offset="0.42" stop-color="#E0DBEB" stop-opacity="0"/>
<stop offset="0.69" stop-color="#E0DBEB" stop-opacity="0.61165"/>
<stop offset="1" stop-color="#E0DBEB"/>
</linearGradient>
</defs>
</svg>
