<svg width="5829" height="1178" viewBox="0 0 5829 1178" fill="none" xmlns="http://www.w3.org/2000/svg">
<path d="M2064.58 910V278.1H2489.11V385.79H2187.4V548.66H2438.38V648.34H2187.4V910H2064.58ZM2493.78 772.05C2493.78 741.79 2502.08 715.387 2518.7 692.84C2535.9 669.7 2559.64 651.9 2589.9 639.44C2620.16 626.98 2654.87 620.75 2694.03 620.75C2713.61 620.75 2733.49 622.233 2753.66 625.2C2773.83 628.167 2791.33 632.913 2806.17 639.44V614.52C2806.17 584.853 2797.27 562.01 2779.47 545.99C2762.26 529.97 2736.45 521.96 2702.04 521.96C2676.52 521.96 2652.2 526.41 2629.06 535.31C2605.92 544.21 2581.59 557.263 2556.08 574.47L2517.81 496.15C2548.66 475.977 2580.11 460.847 2612.15 450.76C2644.78 440.673 2678.9 435.63 2714.5 435.63C2780.95 435.63 2832.57 452.243 2869.36 485.47C2906.74 518.697 2925.43 566.163 2925.43 627.87V776.5C2925.43 788.96 2927.51 797.86 2931.66 803.2C2936.41 808.54 2943.82 811.803 2953.91 812.99V910C2943.23 911.78 2933.44 913.263 2924.54 914.45C2916.23 915.637 2909.11 916.23 2903.18 916.23C2879.45 916.23 2861.35 910.89 2848.89 900.21C2837.02 889.53 2829.61 876.477 2826.64 861.05L2823.97 837.02C2803.8 863.127 2778.58 883.3 2748.32 897.54C2718.06 911.78 2687.21 918.9 2655.76 918.9C2624.9 918.9 2597.02 912.67 2572.1 900.21C2547.77 887.157 2528.49 869.653 2514.25 847.7C2500.6 825.153 2493.78 799.937 2493.78 772.05ZM2783.92 796.08C2790.45 788.96 2795.79 781.84 2799.94 774.72C2804.09 767.6 2806.17 761.073 2806.17 755.14V707.97C2791.93 702.037 2776.5 697.587 2759.89 694.62C2743.27 691.06 2727.55 689.28 2712.72 689.28C2681.87 689.28 2656.35 696.103 2636.18 709.75C2616.6 722.803 2606.81 740.307 2606.81 762.26C2606.81 774.127 2610.07 785.4 2616.6 796.08C2623.12 806.76 2632.62 815.363 2645.08 821.89C2657.54 828.417 2672.37 831.68 2689.58 831.68C2707.38 831.68 2724.88 828.417 2742.09 821.89C2759.29 814.77 2773.24 806.167 2783.92 796.08ZM3208.64 918.9C3168.89 918.9 3130.92 912.373 3094.72 899.32C3058.53 886.267 3027.38 866.983 3001.27 841.47L3043.99 764.04C3071.88 786.587 3099.17 803.2 3125.87 813.88C3153.17 824.56 3179.27 829.9 3204.19 829.9C3227.33 829.9 3245.73 825.747 3259.37 817.44C3273.61 809.133 3280.73 796.673 3280.73 780.06C3280.73 768.787 3276.88 760.183 3269.16 754.25C3261.45 747.723 3250.18 742.087 3235.34 737.34C3221.1 732.593 3203.6 727.253 3182.83 721.32C3148.42 710.047 3119.64 699.07 3096.5 688.39C3073.36 677.71 3055.86 664.36 3043.99 648.34C3032.72 631.727 3027.08 610.663 3027.08 585.15C3027.08 554.297 3034.8 527.893 3050.22 505.94C3066.24 483.393 3088.2 465.89 3116.08 453.43C3144.56 440.97 3177.79 434.74 3215.76 434.74C3248.99 434.74 3280.44 440.08 3310.1 450.76C3339.77 460.847 3366.77 477.46 3391.09 500.6L3343.03 576.25C3319.3 557.857 3296.75 544.507 3275.39 536.2C3254.03 527.3 3232.38 522.85 3210.42 522.85C3197.96 522.85 3186.1 524.333 3174.82 527.3C3164.14 530.267 3155.24 535.31 3148.12 542.43C3141.6 548.957 3138.33 558.45 3138.33 570.91C3138.33 582.183 3141.3 591.083 3147.23 597.61C3153.76 603.543 3163.25 608.883 3175.71 613.63C3188.77 618.377 3204.49 623.717 3222.88 629.65C3260.26 640.33 3291.71 651.307 3317.22 662.58C3343.33 673.853 3362.91 687.797 3375.96 704.41C3389.02 720.43 3395.54 742.68 3395.54 771.16C3395.54 817.44 3378.63 853.633 3344.81 879.74C3310.99 905.847 3265.6 918.9 3208.64 918.9ZM3753.51 885.97C3743.42 890.123 3731.26 894.87 3717.02 900.21C3702.78 905.55 3687.35 909.703 3670.74 912.67C3654.72 916.23 3638.4 918.01 3621.79 918.01C3599.84 918.01 3579.66 914.153 3561.27 906.44C3542.88 898.727 3528.04 886.563 3516.77 869.95C3506.09 852.743 3500.75 830.493 3500.75 803.2V535.31H3439.34V443.64H3500.75V292.34H3620.01V443.64H3717.91V535.31H3620.01V763.15C3620.6 779.17 3625.05 790.74 3633.36 797.86C3641.67 804.98 3652.05 808.54 3664.51 808.54C3676.97 808.54 3689.13 806.463 3701 802.31C3712.87 798.157 3722.36 794.597 3729.48 791.63L3753.51 885.97ZM3842.36 910V559.34H3780.95V468.56H3842.36V440.08C3842.36 401.513 3848.59 368.287 3861.05 340.4C3874.11 311.92 3892.2 289.967 3915.34 274.54C3939.08 259.113 3966.67 251.4 3998.11 251.4C4017.1 251.4 4036.09 253.773 4055.07 258.52C4074.65 263.267 4093.94 270.09 4112.92 278.99L4088.89 368.88C4079.99 364.133 4069.61 360.277 4057.74 357.31C4045.88 353.75 4034.6 351.97 4023.92 351.97C4003.75 351.97 3988.32 359.09 3977.64 373.33C3966.96 387.57 3961.62 408.337 3961.62 435.63V468.56H4075.54V559.34H3961.62V910H3842.36ZM4352.59 918.9C4314.61 918.9 4280.5 912.67 4250.24 900.21C4219.98 887.157 4194.17 869.357 4172.81 846.81C4152.04 824.263 4136.02 798.453 4124.75 769.38C4113.47 740.307 4107.84 709.75 4107.84 677.71C4107.84 645.077 4113.47 614.223 4124.75 585.15C4136.02 556.077 4152.04 530.267 4172.81 507.72C4194.17 485.173 4219.98 467.67 4250.24 455.21C4280.5 442.157 4314.61 435.63 4352.59 435.63C4390.56 435.63 4424.38 442.157 4454.05 455.21C4484.31 467.67 4510.12 485.173 4531.48 507.72C4552.84 530.267 4568.86 556.077 4579.54 585.15C4590.81 614.223 4596.45 645.077 4596.45 677.71C4596.45 709.75 4590.81 740.307 4579.54 769.38C4568.86 798.453 4552.84 824.263 4531.48 846.81C4510.71 869.357 4485.2 887.157 4454.94 900.21C4424.68 912.67 4390.56 918.9 4352.59 918.9ZM4230.66 677.71C4230.66 705.003 4236 729.33 4246.68 750.69C4257.36 771.457 4271.89 787.773 4290.29 799.64C4308.68 811.507 4329.45 817.44 4352.59 817.44C4375.13 817.44 4395.6 811.507 4414 799.64C4432.39 787.18 4446.93 770.567 4457.61 749.8C4468.88 728.44 4474.52 704.113 4474.52 676.82C4474.52 650.12 4468.88 626.09 4457.61 604.73C4446.93 583.37 4432.39 566.757 4414 554.89C4395.6 543.023 4375.13 537.09 4352.59 537.09C4329.45 537.09 4308.68 543.32 4290.29 555.78C4271.89 567.647 4257.36 584.26 4246.68 605.62C4236 626.387 4230.66 650.417 4230.66 677.71ZM5110.37 910H4991.11V648.34C4991.11 610.96 4984.58 583.667 4971.53 566.46C4958.48 549.253 4940.38 540.65 4917.24 540.65C4901.22 540.65 4884.9 544.803 4868.29 553.11C4852.27 561.417 4837.73 572.987 4824.68 587.82C4811.63 602.06 4802.13 618.673 4796.2 637.66V910H4676.94V443.64H4784.63V529.97C4796.5 509.797 4811.63 492.887 4830.02 479.24C4848.41 465 4869.48 454.32 4893.21 447.2C4917.54 439.487 4943.05 435.63 4969.75 435.63C4998.82 435.63 5022.56 440.97 5040.95 451.65C5059.94 461.737 5074.18 475.68 5083.67 493.48C5093.76 510.687 5100.58 530.267 5104.14 552.22C5108.29 574.173 5110.37 596.423 5110.37 618.97V910ZM5216.04 1000.78C5226.72 1003.15 5236.51 1005.23 5245.41 1007.01C5254.9 1008.79 5262.91 1009.68 5269.44 1009.68C5280.71 1009.68 5289.91 1006.71 5297.03 1000.78C5304.74 995.44 5312.16 985.353 5319.28 970.52C5326.4 956.28 5333.81 936.107 5341.53 910L5157.3 443.64H5281.01L5406.5 788.07L5516.86 443.64H5630.78L5434.98 1002.56C5427.86 1023.33 5416.88 1042.02 5402.05 1058.63C5387.81 1075.84 5369.71 1089.19 5347.76 1098.68C5326.4 1108.77 5302.37 1113.81 5275.67 1113.81C5266.17 1113.81 5256.68 1112.92 5247.19 1111.14C5237.69 1109.95 5227.31 1107.58 5216.04 1104.02V1000.78Z" fill="black"/>
<circle cx="929" cy="589" r="589" fill="black"/>
<rect x="330" y="950" width="371" height="59" rx="29.5" fill="#3F3D43"/>
<rect x="284" y="851" width="444" height="59" rx="29.5" fill="#3F3D43"/>
<rect x="244" y="752" width="528" height="59" rx="29.5" fill="#3F3D43"/>
<rect x="177" y="653" width="794" height="59" rx="29.5" fill="#3F3D43"/>
<rect x="244" y="554" width="589" height="59" rx="29.5" fill="#3F3D43"/>
<rect x="284" y="455" width="590" height="59" rx="29.5" fill="#3F3D43"/>
<rect x="133" y="950" width="133" height="59" rx="29.5" fill="url(#paint0_linear_24_36)"/>
<rect x="166" y="357" width="133" height="59" rx="29.5" fill="url(#paint1_linear_24_36)"/>
<path d="M0 682.5C0 666.208 13.2076 653 29.5 653H103.5C119.792 653 133 666.208 133 682.5C133 698.792 119.792 712 103.5 712H29.5C13.2076 712 0 698.792 0 682.5Z" fill="url(#paint2_linear_24_36)"/>
<rect x="330" y="356" width="641" height="59" rx="29.5" fill="#3F3D43"/>
<path d="M721.639 415.399C721.639 415.399 744.724 338.293 807.797 295.328C870.87 252.363 934.353 256.081 955.379 256.081H1350.71C1342.57 311.716 1329.35 352.178 1311.04 377.466C1292.72 402.755 1266.95 415.399 1233.72 415.399H912.093L855.439 575.995H1190.14C1182.01 632.473 1168.78 673.357 1150.47 698.645C1132.16 723.091 1106.38 735.314 1073.15 735.314H814.741L678 1122C678 1122 587.5 1083.5 516 1009L721.639 415.399Z" fill="white"/>
<defs>
<linearGradient id="paint0_linear_24_36" x1="133" y1="1009" x2="266" y2="1009" gradientUnits="userSpaceOnUse">
<stop stop-color="#3F3D43" stop-opacity="0"/>
<stop offset="1" stop-color="#3F3D43"/>
</linearGradient>
<linearGradient id="paint1_linear_24_36" x1="166" y1="416" x2="299" y2="416" gradientUnits="userSpaceOnUse">
<stop stop-color="#3F3D43" stop-opacity="0.1"/>
<stop offset="1" stop-color="#3F3D43"/>
</linearGradient>
<linearGradient id="paint2_linear_24_36" x1="0" y1="712" x2="133" y2="712" gradientUnits="userSpaceOnUse">
<stop offset="0.42" stop-color="#3F3D43" stop-opacity="0"/>
<stop offset="0.69" stop-color="#3F3D43" stop-opacity="0.61165"/>
<stop offset="1" stop-color="#3F3D43"/>
</linearGradient>
</defs>
</svg>
